<svg width="30" height="31" viewBox="0 0 30 31" fill="none" xmlns="http://www.w3.org/2000/svg">
<path d="M15 0C10.9294 0 10.4175 0.0189286 8.81812 0.0908571C7.21875 0.166571 6.12937 0.420214 5.175 0.795C4.17393 1.17512 3.26717 1.77138 2.51813 2.54211C1.75514 3.29867 1.16458 4.21395 0.7875 5.22428C0.41625 6.18586 0.163125 7.2875 0.09 8.89643C0.01875 10.5148 0 11.0297 0 15.1447C0 19.256 0.01875 19.7709 0.09 21.3855C0.165 22.9982 0.41625 24.098 0.7875 25.0614C1.17188 26.0571 1.68375 26.9013 2.51813 27.7436C3.35063 28.5859 4.18687 29.1046 5.17313 29.4907C6.12937 29.8655 7.21688 30.121 8.81437 30.1948C10.4156 30.2668 10.9256 30.2857 15 30.2857C19.0744 30.2857 19.5825 30.2668 21.1838 30.1948C22.7794 30.1191 23.8725 29.8655 24.8269 29.4907C25.8273 29.1104 26.7334 28.5141 27.4819 27.7436C28.3162 26.9013 28.8281 26.0571 29.2125 25.0614C29.5819 24.098 29.835 22.9982 29.91 21.3855C29.9812 19.7709 30 19.256 30 15.1429C30 11.0297 29.9812 10.5148 29.91 8.89832C29.835 7.2875 29.5819 6.18586 29.2125 5.22428C28.8355 4.21393 28.2449 3.29864 27.4819 2.54211C26.7331 1.7711 25.8262 1.17479 24.825 0.795C23.8687 0.420214 22.7775 0.164679 21.1819 0.0908571C19.5806 0.0189286 19.0725 0 14.9963 0H15.0019H15ZM13.6556 2.7295H15.0019C19.0069 2.7295 19.4812 2.74275 21.0619 2.81657C22.5244 2.88282 23.3194 3.13078 23.8481 3.33711C24.5475 3.61157 25.0481 3.94093 25.5731 4.47093C26.0981 5.00093 26.4225 5.50443 26.6944 6.21236C26.9006 6.74425 27.1444 7.54682 27.21 9.02325C27.2831 10.6189 27.2981 11.0978 27.2981 15.1391C27.2981 19.1803 27.2831 19.6611 27.21 21.2568C27.1444 22.7332 26.8988 23.5339 26.6944 24.0677C26.4539 24.7252 26.07 25.3197 25.5712 25.8072C25.0462 26.3372 24.5475 26.6647 23.8463 26.9391C23.3213 27.1474 22.5262 27.3934 21.0619 27.4616C19.4812 27.5335 19.0069 27.5505 15.0019 27.5505C10.9969 27.5505 10.5206 27.5335 8.94 27.4616C7.4775 27.3934 6.68437 27.1474 6.15562 26.9391C5.50406 26.6967 4.91461 26.3099 4.43062 25.8072C3.93141 25.3189 3.54698 24.7238 3.30562 24.0658C3.10125 23.5339 2.85563 22.7313 2.79 21.2549C2.71875 19.6592 2.70375 19.1803 2.70375 15.1353C2.70375 11.0921 2.71875 10.6151 2.79 9.01946C2.8575 7.54303 3.10125 6.74046 3.3075 6.20668C3.57938 5.50064 3.90562 4.99525 4.43062 4.46525C4.95563 3.93525 5.45437 3.60778 6.15562 3.33332C6.68437 3.12511 7.4775 2.87903 8.94 2.81089C10.3238 2.74654 10.86 2.72761 13.6556 2.72571V2.7295ZM23.0081 5.24321C22.7717 5.24321 22.5377 5.29021 22.3193 5.38153C22.1009 5.47285 21.9025 5.6067 21.7353 5.77544C21.5682 5.94418 21.4356 6.1445 21.3451 6.36496C21.2547 6.58543 21.2081 6.82172 21.2081 7.06036C21.2081 7.29899 21.2547 7.53528 21.3451 7.75574C21.4356 7.97621 21.5682 8.17653 21.7353 8.34527C21.9025 8.51401 22.1009 8.64786 22.3193 8.73918C22.5377 8.8305 22.7717 8.8775 23.0081 8.8775C23.4855 8.8775 23.9434 8.68605 24.2809 8.34527C24.6185 8.00449 24.8081 7.54229 24.8081 7.06036C24.8081 6.57842 24.6185 6.11622 24.2809 5.77544C23.9434 5.43466 23.4855 5.24321 23.0081 5.24321ZM15.0019 7.367C13.9801 7.3509 12.9654 7.54017 12.0168 7.92376C11.0682 8.30736 10.2047 8.87763 9.47653 9.60137C8.74835 10.3251 8.17006 11.1879 7.77533 12.1394C7.3806 13.0909 7.17731 14.1122 7.17731 15.1438C7.17731 16.1754 7.3806 17.1967 7.77533 18.1482C8.17006 19.0997 8.74835 19.9625 9.47653 20.6862C10.2047 21.41 11.0682 21.9802 12.0168 22.3638C12.9654 22.7474 13.9801 22.9367 15.0019 22.9206C17.0241 22.8888 18.9529 22.0554 20.3718 20.6004C21.7908 19.1455 22.5861 17.1856 22.5861 15.1438C22.5861 13.102 21.7908 11.1421 20.3718 9.68717C18.9529 8.2322 17.0241 7.39885 15.0019 7.367ZM15.0019 10.0946C16.3281 10.0946 17.6001 10.6265 18.5379 11.5732C19.4757 12.5199 20.0025 13.804 20.0025 15.1429C20.0025 16.4817 19.4757 17.7658 18.5379 18.7125C17.6001 19.6592 16.3281 20.1911 15.0019 20.1911C13.6756 20.1911 12.4037 19.6592 11.4659 18.7125C10.5281 17.7658 10.0013 16.4817 10.0013 15.1429C10.0013 13.804 10.5281 12.5199 11.4659 11.5732C12.4037 10.6265 13.6756 10.0946 15.0019 10.0946Z" fill="white"/>
</svg>
