<svg width="30" height="31" viewBox="0 0 30 31" fill="none" xmlns="http://www.w3.org/2000/svg">
<path d="M0 2.16921C0 0.971035 0.98625 0 2.20312 0H27.7969C29.0138 0 30 0.971035 30 2.16921V28.1165C30 29.3147 29.0138 30.2857 27.7969 30.2857H2.20312C0.98625 30.2857 0 29.3147 0 28.1165V2.16921ZM9.26812 25.3529V11.677H4.76625V25.3529H9.26812ZM7.01813 9.80878C8.5875 9.80878 9.56437 8.76014 9.56437 7.4465C9.53625 6.10446 8.58938 5.08421 7.04813 5.08421C5.50688 5.08421 4.5 6.10636 4.5 7.4465C4.5 8.76014 5.47687 9.80878 6.98812 9.80878H7.01813ZM16.2206 25.3529V17.7152C16.2206 17.3064 16.2506 16.8975 16.3706 16.606C16.695 15.7902 17.4356 14.9441 18.6806 14.9441C20.31 14.9441 20.9606 16.1972 20.9606 18.037V25.3529H25.4625V17.5089C25.4625 13.3068 23.2425 11.3534 20.28 11.3534C17.8913 11.3534 16.8206 12.6784 16.2206 13.6115V13.6589H16.1906C16.2006 13.6431 16.2106 13.6273 16.2206 13.6115V11.677H11.7206C11.7769 12.9604 11.7206 25.3529 11.7206 25.3529H16.2206Z" fill="white"/>
</svg>
