<svg width="30" height="31" viewBox="0 0 30 31" fill="none" xmlns="http://www.w3.org/2000/svg">
<path d="M9.42375 30.2857C20.745 30.2857 26.9381 18.631 26.9381 8.54173C26.9381 8.21559 26.9381 7.8848 26.9269 7.55866C28.1326 6.47422 29.1732 5.13163 30 3.59377C28.8737 4.21076 27.6802 4.61739 26.4581 4.80048C27.7454 3.84452 28.7095 2.3404 29.1712 0.567694C27.9619 1.45787 26.6382 2.08277 25.2581 2.41502C24.3303 1.18741 23.1026 0.37415 21.7652 0.10122C20.4277 -0.17171 19.0551 0.11092 17.86 0.905332C16.6649 1.69974 15.714 2.9616 15.1546 4.49545C14.5952 6.02929 14.4585 7.74953 14.7656 9.38968C12.3183 9.23722 9.92403 8.44731 7.7382 7.07119C5.55238 5.69507 3.62378 3.76347 2.0775 1.40167C1.29251 3.08613 1.05295 5.07863 1.40746 6.97456C1.76197 8.8705 2.68398 10.5277 3.98625 11.6097C3.01039 11.5685 2.05598 11.243 1.2 10.6593V10.7641C1.20168 12.5287 1.6937 14.2384 2.59289 15.6044C3.49208 16.9703 4.74328 17.9085 6.135 18.2606C5.60674 18.4414 5.06106 18.5315 4.51312 18.5285C4.12684 18.5299 3.74134 18.4855 3.36188 18.3957C3.75522 19.9147 4.52114 21.2428 5.55234 22.194C6.58354 23.1452 7.82838 23.6718 9.1125 23.7001C6.93104 25.8288 4.23638 26.9834 1.4625 26.9778C0.973726 26.9803 0.485293 26.9453 0 26.8729C2.81534 29.1029 6.08493 30.287 9.42375 30.2857Z" fill="white"/>
</svg>
